<svg width="12" height="14" viewBox="0 0 12 14" fill="none" xmlns="http://www.w3.org/2000/svg">
<path d="M2.33333 0.333313H9.66667C9.77016 0.333313 9.87224 0.35741 9.96481 0.403695C10.0574 0.44998 10.1379 0.517182 10.2 0.59998L12 2.99998V13C12 13.1768 11.9298 13.3464 11.8047 13.4714C11.6797 13.5964 11.5101 13.6666 11.3333 13.6666H0.666667C0.489856 13.6666 0.320286 13.5964 0.195262 13.4714C0.0702379 13.3464 0 13.1768 0 13V2.99998L1.8 0.59998C1.8621 0.517182 1.94262 0.44998 2.03519 0.403695C2.12776 0.35741 2.22984 0.333313 2.33333 0.333313ZM10.6667 4.33331H1.33333V12.3333H10.6667V4.33331ZM10.3333 2.99998L9.33333 1.66665H2.66667L1.66667 2.99998H10.3333ZM4 5.66665V6.99998C4 7.53041 4.21071 8.03912 4.58579 8.41419C4.96086 8.78927 5.46957 8.99998 6 8.99998C6.53043 8.99998 7.03914 8.78927 7.41421 8.41419C7.78929 8.03912 8 7.53041 8 6.99998V5.66665H9.33333V6.99998C9.33333 7.88403 8.98214 8.73188 8.35702 9.357C7.7319 9.98212 6.88406 10.3333 6 10.3333C5.11595 10.3333 4.2681 9.98212 3.64298 9.357C3.01786 8.73188 2.66667 7.88403 2.66667 6.99998V5.66665H4Z" fill="currentColor"/>
</svg>
