<svg width="14" height="14" viewBox="0 0 14 14" fill="none" xmlns="http://www.w3.org/2000/svg">
<path d="M1.22671 10.3333C0.944887 9.84599 0.725817 9.32497 0.574707 8.78267C0.903579 8.6154 1.17977 8.36042 1.37273 8.04593C1.56568 7.73145 1.66788 7.36971 1.66802 7.00075C1.66816 6.63178 1.56623 6.26997 1.37351 5.95534C1.18079 5.64071 0.904787 5.38552 0.57604 5.218C0.877398 4.12833 1.45119 3.13331 2.24337 2.32667C2.55277 2.52782 2.91179 2.63944 3.28069 2.64919C3.6496 2.65894 4.01401 2.56642 4.33359 2.38189C4.65318 2.19736 4.91548 1.928 5.09146 1.60363C5.26744 1.27926 5.35024 0.912521 5.33071 0.544004C6.42545 0.261085 7.57419 0.261544 8.66871 0.545337C8.64934 0.913847 8.73231 1.28053 8.90843 1.60481C9.08455 1.92909 9.34695 2.19832 9.66659 2.38271C9.98624 2.5671 10.3507 2.65946 10.7196 2.64957C11.0884 2.63968 11.4474 2.52793 11.7567 2.32667C12.1427 2.72 12.4854 3.16734 12.7734 3.66667C13.062 4.166 13.278 4.68667 13.4254 5.21734C13.0965 5.3846 12.8203 5.63959 12.6274 5.95407C12.4344 6.26856 12.3322 6.6303 12.3321 6.99926C12.3319 7.36823 12.4339 7.73004 12.6266 8.04467C12.8193 8.3593 13.0953 8.61449 13.424 8.782C13.1227 9.87168 12.5489 10.8667 11.7567 11.6733C11.4473 11.4722 11.0883 11.3606 10.7194 11.3508C10.3505 11.3411 9.98607 11.4336 9.66649 11.6181C9.3469 11.8026 9.08461 12.072 8.90862 12.3964C8.73264 12.7207 8.64984 13.0875 8.66937 13.456C7.57463 13.7389 6.42589 13.7385 5.33137 13.4547C5.35074 13.0862 5.26777 12.7195 5.09165 12.3952C4.91554 12.0709 4.65314 11.8017 4.33349 11.6173C4.01384 11.4329 3.64941 11.3405 3.28052 11.3504C2.91164 11.3603 2.55268 11.4721 2.24337 11.6733C1.84937 11.2713 1.50777 10.8211 1.22671 10.3333ZM5.00004 10.464C5.71046 10.8738 6.2446 11.5313 6.50004 12.3107C6.83271 12.342 7.16671 12.3427 7.49937 12.3113C7.75497 11.5319 8.28937 10.8743 9.00004 10.4647C9.71019 10.0538 10.5471 9.91966 11.35 10.088C11.5434 9.816 11.71 9.526 11.8487 9.22267C11.3017 8.61163 10.9995 7.82014 11 7C11 6.16 11.3134 5.37534 11.8487 4.77734C11.7091 4.4741 11.5417 4.18443 11.3487 3.912C10.5462 4.08021 9.7099 3.94632 9.00004 3.536C8.28962 3.12625 7.75548 2.46866 7.50004 1.68934C7.16737 1.658 6.83337 1.65734 6.50071 1.68867C6.24511 2.4681 5.71071 3.12571 5.00004 3.53534C4.2899 3.94621 3.45303 4.08035 2.65004 3.912C2.45708 4.18419 2.29013 4.47391 2.15137 4.77734C2.69842 5.38838 3.00063 6.17986 3.00004 7C3.00004 7.84 2.68671 8.62467 2.15137 9.22267C2.29102 9.5259 2.4584 9.81558 2.65137 10.088C3.45385 9.9198 4.29018 10.0537 5.00004 10.464ZM7.00004 9C6.46961 9 5.9609 8.78929 5.58583 8.41422C5.21075 8.03914 5.00004 7.53044 5.00004 7C5.00004 6.46957 5.21075 5.96086 5.58583 5.58579C5.9609 5.21072 6.46961 5 7.00004 5C7.53047 5 8.03918 5.21072 8.41425 5.58579C8.78933 5.96086 9.00004 6.46957 9.00004 7C9.00004 7.53044 8.78933 8.03914 8.41425 8.41422C8.03918 8.78929 7.53047 9 7.00004 9ZM7.00004 7.66667C7.17685 7.66667 7.34642 7.59643 7.47144 7.47141C7.59647 7.34638 7.66671 7.17682 7.66671 7C7.66671 6.82319 7.59647 6.65362 7.47144 6.5286C7.34642 6.40358 7.17685 6.33334 7.00004 6.33334C6.82323 6.33334 6.65366 6.40358 6.52864 6.5286C6.40361 6.65362 6.33337 6.82319 6.33337 7C6.33337 7.17682 6.40361 7.34638 6.52864 7.47141C6.65366 7.59643 6.82323 7.66667 7.00004 7.66667Z" fill="currentColor"/>
</svg>
