<svg width="14" height="13" viewBox="0 0 14 13" fill="none" xmlns="http://www.w3.org/2000/svg">
<path d="M7.00059 1.01932C8.56659 -0.38668 10.9866 -0.340013 12.4953 1.17132C14.0033 2.68332 14.0553 5.09132 12.6526 6.66199L6.99926 12.3233L1.34726 6.66199C-0.0554107 5.09132 -0.0027439 2.67932 1.50459 1.17132C3.01459 -0.338013 5.42992 -0.38868 7.00059 1.01932ZM11.5513 2.11332C10.5513 1.11199 8.93792 1.07132 7.89126 2.01132L7.00126 2.80999L6.11059 2.01199C5.06059 1.07065 3.45059 1.11199 2.44792 2.11465C1.45459 3.10799 1.40459 4.69799 2.31992 5.74865L6.99992 10.436L11.6799 5.74932C12.5959 4.69799 12.5459 3.10999 11.5513 2.11332Z" fill="currentColor"/>
</svg>
