<svg width="14" height="14" viewBox="0 0 14 14" fill="none" xmlns="http://www.w3.org/2000/svg">
<path d="M2.66675 11H4.00008V12.3334H12.0001V1.66671H4.00008V3.00004H2.66675V1.00004C2.66675 0.82323 2.73699 0.65366 2.86201 0.528636C2.98703 0.403612 3.1566 0.333374 3.33341 0.333374H12.6667C12.8436 0.333374 13.0131 0.403612 13.1382 0.528636C13.2632 0.65366 13.3334 0.82323 13.3334 1.00004V13C13.3334 13.1769 13.2632 13.3464 13.1382 13.4714C13.0131 13.5965 12.8436 13.6667 12.6667 13.6667H3.33341C3.1566 13.6667 2.98703 13.5965 2.86201 13.4714C2.73699 13.3464 2.66675 13.1769 2.66675 13V11ZM4.00008 6.33337H8.66675V7.66671H4.00008V9.66671L0.666748 7.00004L4.00008 4.33337V6.33337Z" fill="currentColor"/>
</svg>
