<svg width="12" height="14" viewBox="0 0 12 14" fill="none" xmlns="http://www.w3.org/2000/svg">
<path d="M11.3333 13.6666H0.666667C0.489856 13.6666 0.320286 13.5964 0.195262 13.4714C0.0702379 13.3464 0 13.1768 0 13V0.99998C0 0.823169 0.0702379 0.653599 0.195262 0.528575C0.320286 0.403551 0.489856 0.333313 0.666667 0.333313H11.3333C11.5101 0.333313 11.6797 0.403551 11.8047 0.528575C11.9298 0.653599 12 0.823169 12 0.99998V13C12 13.1768 11.9298 13.3464 11.8047 13.4714C11.6797 13.5964 11.5101 13.6666 11.3333 13.6666ZM10.6667 12.3333V1.66665H1.33333V12.3333H10.6667ZM3.33333 3.66665H8.66667V4.99998H3.33333V3.66665ZM3.33333 6.33331H8.66667V7.66665H3.33333V6.33331ZM3.33333 8.99998H8.66667V10.3333H3.33333V8.99998Z" fill="currentColor"/>
</svg>
