<svg width="236" height="136" viewBox="0 0 236 136" fill="none" xmlns="http://www.w3.org/2000/svg">
<g clip-path="url(#clip0_9553_2)">
<path d="M36 63.2L47.9 115.4L39.4 117.3L27.5 65.1C22.5 65.2 17.6 63.6 13.6 60.5C9.6 57.4 6.9 53.1 5.8 48.2L0 22.7L8.5 20.8L15.3 50.5L23.8 48.6L17 18.8L25.5 16.9L32.3 46.6L40.8 44.7L34 14.9L42.5 13L48.3 38.5C49.4 43.4 48.8 48.5 46.6 53C44.4 57.5 40.6 61.1 36 63.2Z" fill="currentColor"/>
<path d="M235.2 14.9L207.2 116.5L198.8 114.2L211.7 67.2L194.9 62.6L203 33.2C204.8 26.5 209.3 20.8 215.3 17.4C221.4 14 228.5 13.1 235.2 14.9ZM223.8 23.3C219.8 24.3 213.5 27.9 211.4 35.6L205.6 56.6L214 58.9L223.8 23.3Z" fill="currentColor"/>
<path d="M109.5 59.3C109.9 63.3 106.9 66.8 102.9 67.2C98.8999 67.6 95.3999 64.6 94.9999 60.6C94.5999 56.6 97.5999 53.1 101.6 52.7C105.6 52.3 109.1 55.3 109.5 59.3Z" fill="currentColor"/>
<path d="M149.2 55.5C149.6 59.5 146.6 63 142.6 63.4C138.6 63.8 135.1 60.8 134.7 56.8C134.3 52.8 137.3 49.3 141.3 48.9C145.3 48.6 148.8 51.5 149.2 55.5Z" fill="currentColor"/>
<path d="M114.6 90.4001L114.4 87.9001C114.1 84.8001 115.1 81.8 117.1 79.5C119.1 77.1 121.9 75.7 125 75.4C128.1 75.1 131.1 76.1 133.4 78.1C135.8 80.1 137.2 82.9 137.5 86L137.7 88.5L132.6 88.9001L132.4 86.4001C132.3 84.6 131.4 83.1 130.1 81.9C128.8 80.8 127.1 80.3 125.4 80.4C123.6 80.5 122 81.4 120.9 82.7C119.8 84 119.3 85.7001 119.4 87.4001L119.6 89.9001L114.6 90.4001Z" fill="currentColor"/>
<path d="M122 136C84.5 136 54 105.5 54 68C54 30.5 84.5 0 122 0C159.5 0 190 30.5 190 68C190 105.5 159.5 136 122 136ZM122 8C88.9 8 62 34.9 62 68C62 101.1 88.9 128 122 128C155.1 128 182 101.1 182 68C182 34.9 155.1 8 122 8Z" fill="currentColor"/>
<path d="M121.9 121C113.3 121 104.9 118.9 97.3 114.9C87.7 109.9 80 102.2 75 92.6C70 83 68 72.3 69.3 61.6C70.6 50.9 75.1 40.9 82.3 32.9C89.5 24.8 98.8 19.2 109.3 16.6C119.8 14 130.7 14.7 140.8 18.5C150.9 22.3 159.5 29.1 165.6 37.9C171.7 46.8 175 57.2 175 68H167C167 58.8 164.2 50 159 42.4C153.8 34.9 146.5 29.1 137.9 25.9C129.3 22.7 120.1 22.1 111.2 24.3C102.3 26.5 94.4 31.3 88.3 38.1C82.2 45 78.4 53.4 77.3 62.5C76.2 71.6 77.8 80.7 82.1 88.8C86.4 96.9 92.9 103.5 101 107.8C109.1 112.1 118.2 113.8 127.3 112.7L128.3 120.6C126.2 120.9 124.1 121 121.9 121Z" fill="currentColor"/>
<path d="M138.7 118.3L136.2 110.7C143.6 108.3 150.2 103.9 155.4 98.1C160.6 92.3 164.2 85.3 165.9 77.7L173.7 79.4C171.7 88.3 167.4 96.7 161.3 103.5C155.2 110.3 147.4 115.4 138.7 118.3Z" fill="currentColor"/>
</g>
<defs>
<clipPath id="clip0_9553_2">
<rect width="235.2" height="136" fill="white"/>
</clipPath>
</defs>
</svg>
